<svg xmlns="http://www.w3.org/2000/svg" width="512" height="512" viewBox="0 0 512 512">
<g>
<path d="M 256.00 366.00 L 256.00 398.00 L 226.00 398.00 L 226.00 276.00 L 250.45 276.00 C277.17,276.00 282.33,276.66 291.38,281.20 C306.18,288.64 316.03,304.89 315.99,321.80 C315.97,330.95 311.32,343.42 305.57,349.79 C303.61,351.96 302.00,354.16 302.00,354.68 C302.00,355.20 305.82,361.44 310.49,368.56 C315.16,375.68 318.99,381.73 318.99,382.00 C318.99,382.60 296.05,397.39 294.55,397.75 C293.97,397.89 291.42,394.74 288.87,390.75 C286.32,386.76 281.71,379.56 278.61,374.75 L 272.99 366.00 ZM 158.50 398.01 C151.25,399.19 151.09,399.19 143.28,397.49 C126.58,393.86 113.75,382.51 108.98,367.14 C107.14,361.24 107.00,357.80 107.00,318.39 L 107.00 276.00 L 137.00 276.00 L 137.00 316.75 C137.01,355.65 137.10,357.65 138.99,360.76 C144.88,370.41 159.44,370.43 164.70,360.79 C166.33,357.80 166.53,353.75 166.79,316.75 L 167.08 276.00 L 197.00 276.00 L 196.99 315.25 C196.99,337.09 196.53,357.29 195.97,360.78 C192.97,379.27 177.16,394.98 158.50,398.01 ZM 405.50 368.50 L 405.50 398.15 L 376.12 398.33 C357.30,398.44 346.61,398.14 346.36,397.50 C346.15,396.95 346.10,369.50 346.24,336.50 L 346.50 276.50 L 376.50 276.50 L 376.76 322.22 L 377.02 367.95 L 391.26 368.22 ZM 256.00 305.81 L 256.00 336.00 L 265.10 336.00 C275.51,336.00 279.42,334.63 283.04,329.73 C286.21,325.45 286.41,317.37 283.44,313.39 C279.07,307.53 276.64,306.53 265.93,306.16 Z" fill="rgb(15,48,81)"/>
<path d="M 256.00 366.00 L 272.99 366.00 L 278.61 374.75 C281.71,379.56 286.32,386.76 288.87,390.75 C291.42,394.74 293.97,397.89 294.55,397.75 C296.05,397.39 318.99,382.60 318.99,382.00 C318.99,381.73 315.16,375.68 310.49,368.56 C305.82,361.44 302.00,355.20 302.00,354.68 C302.00,354.16 303.61,351.96 305.57,349.79 C311.32,343.42 315.97,330.95 315.99,321.80 C316.03,304.89 306.18,288.64 291.38,281.20 C282.33,276.66 277.17,276.00 250.45,276.00 L 256.00 276.00 L 256.00 224.00 L 462.00 224.00 L 462.00 450.00 L 256.00 450.00 L 256.00 399.00 L 226.00 399.00 L 226.00 398.00 L 256.00 398.00 ZM 405.50 368.50 L 377.02 367.95 L 376.76 322.22 L 376.50 276.50 L 346.50 276.50 L 346.24 336.50 C346.10,369.50 346.15,396.95 346.36,397.50 C346.61,398.14 357.30,398.44 376.12,398.33 L 405.50 398.15 ZM 113.00 161.00 L 113.00 224.00 L 94.75 223.97 C80.04,223.94 75.53,223.60 71.50,222.19 C62.39,219.02 56.65,213.91 51.92,204.79 C50.54,202.11 50.00,199.03 50.00,193.72 C50.00,182.97 52.13,177.70 59.42,170.46 C68.06,161.87 71.28,161.00 94.61,161.00 ZM 256.00 305.81 L 265.93 306.16 C276.64,306.53 279.07,307.53 283.44,313.39 C286.41,317.37 286.21,325.45 283.04,329.73 C279.42,334.63 275.51,336.00 265.10,336.00 L 256.00 336.00 Z" fill="rgb(47,137,228)"/>
<path d="M 463.01 224.00 L 462.50 450.50 L 280.50 450.63 C180.40,450.70 96.21,450.42 93.40,450.00 C70.04,446.57 52.59,428.18 49.92,404.18 C49.34,398.98 49.06,353.60 49.23,291.00 C49.36,238.44 49.27,210.84 50.02,195.53 C50.14,199.76 50.70,202.43 51.92,204.79 C56.65,213.91 62.39,219.02 71.50,222.19 C75.53,223.60 80.04,223.94 94.75,223.97 L 113.00 224.00 L 256.00 224.00 L 256.00 276.00 L 226.00 276.00 L 226.00 399.00 L 256.00 399.00 L 256.00 450.00 L 462.00 450.00 L 462.00 224.00 ZM 158.50 398.01 C177.16,394.98 192.97,379.27 195.97,360.78 C196.53,357.29 196.99,337.09 196.99,315.25 L 197.00 276.00 L 167.08 276.00 L 166.79 316.75 C166.53,353.75 166.33,357.80 164.70,360.79 C159.44,370.43 144.88,370.41 138.99,360.76 C137.10,357.65 137.01,355.65 137.00,316.75 L 137.00 276.00 L 107.00 276.00 L 107.00 318.39 C107.00,357.80 107.14,361.24 108.98,367.14 C113.75,382.51 126.58,393.86 143.28,397.49 C151.09,399.19 151.25,399.19 158.50,398.01 ZM 51.32 182.63 C52.05,178.98 53.06,176.98 54.46,175.31 C55.75,173.76 57.38,172.49 59.42,170.46 C55.16,174.69 52.66,178.25 51.32,182.63 Z" fill="rgb(80,166,252)"/>
<path d="M 0.00 256.00 L 0.00 0.00 L 256.00 0.00 L 512.00 0.00 L 512.00 256.00 L 512.00 512.00 L 256.00 512.00 L 0.00 512.00 L 0.00 256.00 ZM 462.75 337.25 L 463.01 224.00 L 288.00 224.00 L 113.00 224.00 L 113.00 192.50 L 113.00 161.00 L 94.61 161.00 C71.28,161.00 68.06,161.87 59.42,170.46 C48.66,181.16 49.54,170.70 49.23,291.00 C49.06,353.60 49.34,398.98 49.92,404.18 C52.59,428.18 70.04,446.57 93.40,450.00 C96.21,450.42 180.40,450.70 280.50,450.63 L 462.50 450.50 L 462.75 337.25 Z" fill="rgb(231,242,244)"/>
</g>
</svg>